<svg width="20" height="20" viewBox="0 0 20 20" fill="none" xmlns="http://www.w3.org/2000/svg">
<path fill-rule="evenodd" clip-rule="evenodd" d="M10 1.5C5.30558 1.5 1.5 5.30558 1.5 10C1.5 12.1074 2.26691 14.0356 3.53685 15.5209C3.5455 15.5099 3.55434 15.4987 3.56336 15.4874C3.8017 15.1891 4.16984 14.7995 4.70009 14.4127C5.76661 13.6347 7.46325 12.887 10.021 12.887C12.5792 12.887 14.2784 13.6376 15.3474 14.4181C15.8777 14.8053 16.2466 15.1953 16.4859 15.4942C17.7422 14.0126 18.5 12.0948 18.5 10C18.5 5.30558 14.6944 1.5 10 1.5ZM15.7873 16.2256C15.7631 16.193 15.7361 16.1579 15.7064 16.1207C15.5153 15.8817 15.2088 15.5551 14.7576 15.2257C13.8614 14.5713 12.369 13.887 10.021 13.887C7.67252 13.887 6.18276 14.5689 5.28943 15.2206C4.83976 15.5486 4.53462 15.8738 4.34465 16.1116C4.30439 16.162 4.26933 16.2084 4.23919 16.2501C5.75378 17.6468 7.77726 18.5 10 18.5C12.2357 18.5 14.2699 17.6368 15.7873 16.2256ZM0.5 10C0.5 4.75329 4.75329 0.5 10 0.5C15.2467 0.5 19.5 4.75329 19.5 10C19.5 15.2467 15.2467 19.5 10 19.5C4.75329 19.5 0.5 15.2467 0.5 10ZM10.0313 5.1189C8.55349 5.1189 7.35547 6.31692 7.35547 7.79475C7.35547 9.27258 8.55349 10.4706 10.0313 10.4706C11.5091 10.4706 12.7072 9.27258 12.7072 7.79475C12.7072 6.31692 11.5091 5.1189 10.0313 5.1189ZM6.35547 7.79475C6.35547 5.76463 8.0012 4.1189 10.0313 4.1189C12.0614 4.1189 13.7072 5.76463 13.7072 7.79475C13.7072 9.82486 12.0614 11.4706 10.0313 11.4706C8.0012 11.4706 6.35547 9.82486 6.35547 7.79475Z" fill="#00497A"/>
</svg>
