<svg width="20" height="20" viewBox="0 0 20 20" fill="none" xmlns="http://www.w3.org/2000/svg">
<path fill-rule="evenodd" clip-rule="evenodd" d="M10.04 1.5C5.32349 1.5 1.5 5.32349 1.5 10.04C1.5 14.7565 5.32349 18.58 10.04 18.58C14.7565 18.58 18.58 14.7565 18.58 10.04C18.58 5.32349 14.7565 1.5 10.04 1.5ZM0.5 10.04C0.5 4.7712 4.7712 0.5 10.04 0.5C15.3088 0.5 19.58 4.7712 19.58 10.04C19.58 15.3088 15.3088 19.58 10.04 19.58C4.7712 19.58 0.5 15.3088 0.5 10.04Z" fill="#00497A"/>
<path d="M9.99004 7.77012C10.7909 7.77012 11.44 7.12093 11.44 6.32012C11.44 5.5193 10.7909 4.87012 9.99004 4.87012C9.18923 4.87012 8.54004 5.5193 8.54004 6.32012C8.54004 7.12093 9.18923 7.77012 9.99004 7.77012Z" fill="#00497A"/>
<path fill-rule="evenodd" clip-rule="evenodd" d="M10.02 8.95996C10.5723 8.95996 11.02 9.40768 11.02 9.95996V14.83C11.02 15.3822 10.5723 15.83 10.02 15.83C9.46773 15.83 9.02002 15.3822 9.02002 14.83V9.95996C9.02002 9.40768 9.46773 8.95996 10.02 8.95996Z" fill="#00497A"/>
</svg>
