<svg width="20" height="20" viewBox="0 0 20 20" fill="none" xmlns="http://www.w3.org/2000/svg">
<path fill-rule="evenodd" clip-rule="evenodd" d="M2.75 9C2.75 5.54822 5.54822 2.75 9 2.75C12.4518 2.75 15.25 5.54822 15.25 9C15.25 12.4518 12.4518 15.25 9 15.25C5.54822 15.25 2.75 12.4518 2.75 9ZM9 1.25C4.71979 1.25 1.25 4.71979 1.25 9C1.25 13.2802 4.71979 16.75 9 16.75C10.87 16.75 12.5853 16.0877 13.9242 14.9848L17.4697 18.5303C17.7626 18.8232 18.2374 18.8232 18.5303 18.5303C18.8232 18.2374 18.8232 17.7626 18.5303 17.4697L14.9848 13.9242C16.0877 12.5853 16.75 10.87 16.75 9C16.75 4.71979 13.2802 1.25 9 1.25Z" fill="#00497A"/>
</svg>
