<svg width="20" height="20" viewBox="0 0 20 20" fill="none" xmlns="http://www.w3.org/2000/svg">
<path fill-rule="evenodd" clip-rule="evenodd" d="M6.78801 3.74156L6.79009 3.73968L6.8034 3.72789C6.81624 3.71667 6.83691 3.69893 6.86504 3.67583C6.92136 3.62959 7.00726 3.56209 7.1198 3.48244C7.3455 3.32269 7.67479 3.11655 8.08437 2.93435C8.90395 2.56976 10.0216 2.31019 11.2798 2.67911L11.2914 2.68252L11.3018 2.685L11.3028 2.68525L11.3057 2.686L11.3276 2.69192C11.3485 2.69771 11.3815 2.70726 11.425 2.72109C11.512 2.74878 11.6403 2.79341 11.7967 2.85902C12.1105 2.99066 12.5313 3.20422 12.9574 3.53003C13.8004 4.17458 14.6722 5.26102 14.7805 7.07483L14.7813 7.08846L14.7827 7.10069L14.7829 7.10202L14.7842 7.11569C14.7853 7.12849 14.787 7.14926 14.7887 7.17725C14.7922 7.23329 14.7959 7.31799 14.7958 7.42555C14.7956 7.6413 14.7803 7.94536 14.7198 8.29254C14.5982 8.99103 14.3 9.8304 13.6091 10.4941C13.3228 10.7692 13.0674 10.9916 12.8297 11.1987C12.7462 11.2713 12.665 11.3421 12.5853 11.4126C12.2875 11.6761 12.0074 11.9397 11.785 12.2532C11.3131 12.9187 11.1676 13.7117 11.2709 15.0281L11.2719 15.0404L11.2731 15.0499L11.2733 15.0509L11.2743 15.0611C11.2753 15.0721 11.2768 15.0907 11.2781 15.1161C11.2807 15.1669 11.2824 15.2439 11.2779 15.3395C11.2688 15.5325 11.2347 15.7913 11.1378 16.0614C10.9528 16.5771 10.529 17.1746 9.46844 17.425C8.43628 17.6688 7.7782 17.2808 7.34173 16.7887C7.11546 16.5336 6.94932 16.2482 6.83604 16.0033C6.77981 15.8818 6.73809 15.7735 6.70938 15.6886C6.69503 15.6461 6.68432 15.6107 6.67683 15.5834C6.67309 15.5697 6.67034 15.5588 6.66842 15.5506C6.66642 15.5421 6.6657 15.5382 6.6657 15.5382C6.61724 15.2663 6.35757 15.0852 6.08571 15.1337C5.81385 15.1822 5.63276 15.4418 5.68122 15.7137C5.72634 15.9668 5.99134 16.7733 6.59363 17.4523C7.22379 18.1627 8.23953 18.7427 9.69825 18.3982C11.1233 18.0618 11.7925 17.1979 12.0791 16.3991C12.218 16.0118 12.2644 15.65 12.2768 15.3867C12.2831 15.2541 12.2808 15.144 12.2768 15.0649C12.2747 15.0252 12.2722 14.9931 12.2701 14.9695C12.269 14.9578 12.268 14.9481 12.2672 14.9407C12.1729 13.7279 12.3271 13.2174 12.6007 12.8317C12.7515 12.6191 12.9561 12.4198 13.248 12.1615C13.3182 12.0994 13.3934 12.0339 13.473 11.9646C13.7144 11.7544 13.9963 11.5089 14.3019 11.2153C15.1973 10.355 15.5612 9.28952 15.705 8.46417C15.7773 8.04944 15.7956 7.68683 15.7958 7.4264C15.7959 7.29586 15.7915 7.19008 15.7868 7.11518C15.7845 7.0777 15.7821 7.04787 15.7802 7.02644L15.7781 7.0044C15.6463 4.85297 14.5903 3.51971 13.5648 2.73562C13.0558 2.34645 12.5563 2.09325 12.1836 1.93688C11.9967 1.85848 11.8402 1.8038 11.7282 1.76816C11.6722 1.75033 11.6271 1.73723 11.5948 1.72828C11.5787 1.7238 11.5657 1.72036 11.5562 1.71788L11.552 1.71682C10.0039 1.26577 8.63946 1.59294 7.67792 2.02067C7.19598 2.23506 6.80939 2.477 6.54208 2.6662C6.40813 2.76101 6.30325 2.8432 6.2304 2.90302C6.19396 2.93295 6.16545 2.95735 6.14527 2.97499L6.12124 2.99628L6.11397 3.00286L6.11154 3.00508L6.11063 3.00593C6.11063 3.00593 6.10991 3.00658 6.44907 3.37335L6.11063 3.00593L6.10799 3.00837C4.84841 4.18548 4.42984 5.56314 4.32765 6.63599C4.27672 7.17075 4.30381 7.6323 4.3439 7.96195C4.364 8.12713 4.38749 8.26027 4.40651 8.35421C4.41603 8.40122 4.42445 8.43851 4.43081 8.4652L4.43868 8.49722L4.44123 8.50709L4.44212 8.51045L4.44246 8.51173C4.44246 8.51173 4.44273 8.51274 4.90054 8.38878L4.44274 8.51275C4.51491 8.77929 4.7895 8.93686 5.05604 8.86468C5.32245 8.79254 5.47999 8.5182 5.40808 8.25178M5.40808 8.25178L5.40773 8.25036L5.40363 8.23363C5.39976 8.21737 5.39378 8.19112 5.38661 8.15571C5.37226 8.08484 5.35319 7.97774 5.33659 7.8412C5.30329 7.56742 5.2804 7.17964 5.32315 6.73081C5.40827 5.83709 5.75065 4.71208 6.78801 3.74156" fill="#00497A"/>
<path fill-rule="evenodd" clip-rule="evenodd" d="M8.25264 8.35381C8.02452 7.11391 8.24309 6.37308 8.58441 5.94931C8.92626 5.52489 9.47605 5.31323 10.137 5.31323C10.6511 5.31323 11.3712 5.62154 11.7589 6.20225C12.1104 6.72865 12.2565 7.59091 11.4255 8.87142C11.2752 9.10307 11.3412 9.41271 11.5728 9.56302C11.8045 9.71334 12.1141 9.64741 12.2644 9.41576C13.257 7.88614 13.2157 6.58322 12.5906 5.64697C12.0018 4.76503 10.9561 4.31323 10.137 4.31323C9.27469 4.31323 8.39282 4.59299 7.80561 5.32204C7.21789 6.05173 7.01004 7.12644 7.26915 8.53476C7.49039 9.73726 7.23153 10.6211 6.93158 11.1994C6.7801 11.4914 6.61616 11.7089 6.49294 11.8509C6.43145 11.9218 6.38053 11.9734 6.34705 12.0055C6.33033 12.0216 6.31803 12.0327 6.31101 12.039L6.30458 12.0446C6.09336 12.2204 6.06359 12.5341 6.23847 12.7465C6.41395 12.9598 6.72905 12.9903 6.94227 12.8149L6.62453 12.4288C6.94227 12.8149 6.94296 12.8143 6.94319 12.8141L6.94426 12.8132L6.94684 12.8111L6.95376 12.8052L6.97427 12.7873C6.9908 12.7727 7.0129 12.7525 7.03963 12.7269C7.09304 12.6756 7.16515 12.6021 7.24826 12.5063C7.41238 12.3172 7.621 12.0393 7.81273 11.6724C8.07651 12.0234 8.49633 12.2504 8.96917 12.2504C9.76763 12.2504 10.4149 11.6031 10.4149 10.8046C10.4149 10.0062 9.76763 9.35889 8.96917 9.35889C8.74819 9.35889 8.53879 9.40846 8.35149 9.4971C8.35697 9.14318 8.32773 8.76194 8.25264 8.35381Z" fill="#00497A"/>
</svg>
